<mxfile host="app.diagrams.net" modified="2023-01-21T02:46:55.647Z" agent="5.0 (Windows NT 10.0; Win64; x64) AppleWebKit/537.36 (KHTML, like Gecko) Chrome/109.0.0.0 Safari/537.36" etag="MUOdcEJBP9eIFdOcwEGU" version="20.8.10" type="github">
  <diagram id="R2lEEEUBdFMjLlhIrx00" name="Page-1">
    <mxGraphModel dx="875" dy="458" grid="1" gridSize="10" guides="1" tooltips="1" connect="1" arrows="1" fold="1" page="1" pageScale="1" pageWidth="850" pageHeight="1100" math="0" shadow="0" extFonts="Permanent Marker^https://fonts.googleapis.com/css?family=Permanent+Marker">
      <root>
        <mxCell id="0" />
        <mxCell id="1" parent="0" />
        <mxCell id="HUj7IY-rN3zVDBHXPgon-1" value="Clients" style="rounded=0;whiteSpace=wrap;html=1;labelBackgroundColor=none;fillColor=#09555B;strokeColor=#BAC8D3;fontColor=#EEEEEE;" vertex="1" parent="1">
          <mxGeometry x="680" y="350" width="90" height="40" as="geometry" />
        </mxCell>
        <mxCell id="HUj7IY-rN3zVDBHXPgon-3" value="Messages" style="rounded=0;whiteSpace=wrap;html=1;labelBackgroundColor=none;fillColor=#09555B;strokeColor=#BAC8D3;fontColor=#EEEEEE;" vertex="1" parent="1">
          <mxGeometry x="660" y="170" width="90" height="40" as="geometry" />
        </mxCell>
        <mxCell id="HUj7IY-rN3zVDBHXPgon-7" value="" style="endArrow=none;html=1;rounded=0;exitX=0.444;exitY=0;exitDx=0;exitDy=0;exitPerimeter=0;entryX=0.5;entryY=1;entryDx=0;entryDy=0;labelBackgroundColor=none;strokeColor=#0B4D6A;fontColor=default;" edge="1" parent="1" source="HUj7IY-rN3zVDBHXPgon-1" target="HUj7IY-rN3zVDBHXPgon-8">
          <mxGeometry width="50" height="50" relative="1" as="geometry">
            <mxPoint x="500" y="360" as="sourcePoint" />
            <mxPoint x="630" y="280" as="targetPoint" />
            <Array as="points" />
          </mxGeometry>
        </mxCell>
        <mxCell id="HUj7IY-rN3zVDBHXPgon-8" value="Manages" style="rhombus;whiteSpace=wrap;html=1;labelBackgroundColor=none;fillColor=#f5f5f5;strokeColor=#666666;fontColor=#333333;" vertex="1" parent="1">
          <mxGeometry x="670" y="240" width="90" height="50" as="geometry" />
        </mxCell>
        <mxCell id="HUj7IY-rN3zVDBHXPgon-9" value="" style="endArrow=none;html=1;rounded=0;entryX=0.5;entryY=0;entryDx=0;entryDy=0;exitX=0.5;exitY=1;exitDx=0;exitDy=0;labelBackgroundColor=none;strokeColor=#0B4D6A;fontColor=default;" edge="1" parent="1" source="HUj7IY-rN3zVDBHXPgon-3" target="HUj7IY-rN3zVDBHXPgon-8">
          <mxGeometry width="50" height="50" relative="1" as="geometry">
            <mxPoint x="500" y="360" as="sourcePoint" />
            <mxPoint x="550" y="310" as="targetPoint" />
          </mxGeometry>
        </mxCell>
        <mxCell id="HUj7IY-rN3zVDBHXPgon-10" value="Match Making Algorithm" style="rounded=0;whiteSpace=wrap;html=1;labelBackgroundColor=none;fillColor=#09555B;strokeColor=#BAC8D3;fontColor=#EEEEEE;" vertex="1" parent="1">
          <mxGeometry x="450" y="630" width="90" height="40" as="geometry" />
        </mxCell>
        <mxCell id="HUj7IY-rN3zVDBHXPgon-11" value="Recommendations" style="rounded=0;whiteSpace=wrap;html=1;labelBackgroundColor=none;fillColor=#09555B;strokeColor=#BAC8D3;fontColor=#EEEEEE;" vertex="1" parent="1">
          <mxGeometry x="520" y="510" width="120" height="40" as="geometry" />
        </mxCell>
        <mxCell id="HUj7IY-rN3zVDBHXPgon-12" value="" style="endArrow=none;html=1;rounded=0;exitX=0.5;exitY=1;exitDx=0;exitDy=0;labelBackgroundColor=none;strokeColor=#0B4D6A;fontColor=default;" edge="1" parent="1" source="HUj7IY-rN3zVDBHXPgon-11" target="HUj7IY-rN3zVDBHXPgon-13">
          <mxGeometry width="50" height="50" relative="1" as="geometry">
            <mxPoint x="380" y="510" as="sourcePoint" />
            <mxPoint x="220" y="480" as="targetPoint" />
          </mxGeometry>
        </mxCell>
        <mxCell id="HUj7IY-rN3zVDBHXPgon-13" value="Gives" style="rhombus;whiteSpace=wrap;html=1;labelBackgroundColor=none;fillColor=#f5f5f5;strokeColor=#666666;fontColor=#333333;" vertex="1" parent="1">
          <mxGeometry x="560" y="570" width="80" height="60" as="geometry" />
        </mxCell>
        <mxCell id="HUj7IY-rN3zVDBHXPgon-14" value="" style="endArrow=none;html=1;rounded=0;entryX=1;entryY=0.5;entryDx=0;entryDy=0;labelBackgroundColor=none;strokeColor=#0B4D6A;fontColor=default;exitX=0.5;exitY=1;exitDx=0;exitDy=0;" edge="1" parent="1" source="HUj7IY-rN3zVDBHXPgon-13" target="HUj7IY-rN3zVDBHXPgon-10">
          <mxGeometry width="50" height="50" relative="1" as="geometry">
            <mxPoint x="490" y="580" as="sourcePoint" />
            <mxPoint x="430" y="460" as="targetPoint" />
          </mxGeometry>
        </mxCell>
        <mxCell id="HUj7IY-rN3zVDBHXPgon-15" value="" style="endArrow=none;html=1;rounded=0;exitX=1;exitY=0.5;exitDx=0;exitDy=0;entryX=0;entryY=0.5;entryDx=0;entryDy=0;labelBackgroundColor=none;strokeColor=#0B4D6A;fontColor=default;" edge="1" parent="1" source="HUj7IY-rN3zVDBHXPgon-11" target="HUj7IY-rN3zVDBHXPgon-16">
          <mxGeometry width="50" height="50" relative="1" as="geometry">
            <mxPoint x="510" y="500" as="sourcePoint" />
            <mxPoint x="620" y="460" as="targetPoint" />
          </mxGeometry>
        </mxCell>
        <mxCell id="HUj7IY-rN3zVDBHXPgon-16" value="recommends profiles" style="rhombus;whiteSpace=wrap;html=1;labelBackgroundColor=none;fillColor=#f5f5f5;strokeColor=#666666;fontColor=#333333;" vertex="1" parent="1">
          <mxGeometry x="680" y="430" width="100" height="80" as="geometry" />
        </mxCell>
        <mxCell id="HUj7IY-rN3zVDBHXPgon-17" value="" style="endArrow=none;html=1;rounded=0;entryX=0.5;entryY=1;entryDx=0;entryDy=0;labelBackgroundColor=none;strokeColor=#0B4D6A;fontColor=default;" edge="1" parent="1" source="HUj7IY-rN3zVDBHXPgon-16" target="HUj7IY-rN3zVDBHXPgon-1">
          <mxGeometry width="50" height="50" relative="1" as="geometry">
            <mxPoint x="510" y="500" as="sourcePoint" />
            <mxPoint x="560" y="450" as="targetPoint" />
          </mxGeometry>
        </mxCell>
        <mxCell id="HUj7IY-rN3zVDBHXPgon-19" value="Blocked User" style="rounded=0;whiteSpace=wrap;html=1;labelBackgroundColor=none;fillColor=#09555B;strokeColor=#BAC8D3;fontColor=#EEEEEE;" vertex="1" parent="1">
          <mxGeometry x="370" y="430" width="90" height="40" as="geometry" />
        </mxCell>
        <mxCell id="HUj7IY-rN3zVDBHXPgon-20" value="Gives" style="rhombus;whiteSpace=wrap;html=1;labelBackgroundColor=none;fillColor=#f5f5f5;strokeColor=#666666;fontColor=#333333;" vertex="1" parent="1">
          <mxGeometry x="520" y="390" width="80" height="60" as="geometry" />
        </mxCell>
        <mxCell id="HUj7IY-rN3zVDBHXPgon-21" value="" style="endArrow=none;html=1;rounded=0;strokeColor=#0B4D6A;exitX=1;exitY=0.5;exitDx=0;exitDy=0;entryX=0;entryY=0.5;entryDx=0;entryDy=0;" edge="1" parent="1" source="HUj7IY-rN3zVDBHXPgon-19" target="HUj7IY-rN3zVDBHXPgon-20">
          <mxGeometry width="50" height="50" relative="1" as="geometry">
            <mxPoint x="470" y="470" as="sourcePoint" />
            <mxPoint x="520" y="420" as="targetPoint" />
          </mxGeometry>
        </mxCell>
        <mxCell id="HUj7IY-rN3zVDBHXPgon-22" value="" style="endArrow=none;html=1;rounded=0;strokeColor=#0B4D6A;exitX=1;exitY=0.5;exitDx=0;exitDy=0;entryX=0;entryY=0.5;entryDx=0;entryDy=0;" edge="1" parent="1" source="HUj7IY-rN3zVDBHXPgon-20" target="HUj7IY-rN3zVDBHXPgon-1">
          <mxGeometry width="50" height="50" relative="1" as="geometry">
            <mxPoint x="470" y="460" as="sourcePoint" />
            <mxPoint x="530" y="430" as="targetPoint" />
          </mxGeometry>
        </mxCell>
      </root>
    </mxGraphModel>
  </diagram>
</mxfile>
